<svg xmlns="http://www.w3.org/2000/svg" viewBox="0 0 500 200">
  <defs>
    <linearGradient id="redGradient" x1="0%" y1="0%" x2="100%" y2="0%">
      <stop offset="0%" style="stop-color:#e63946;stop-opacity:1" />
      <stop offset="100%" style="stop-color:#ff6b6b;stop-opacity:1" />
    </linearGradient>
  </defs>
  <g>
    <path d="M 100,80 C 120,60 150,50 180,70 C 200,85 220,80 240,70 C 260,60 280,60 300,70 C 320,80 340,80 360,70 L 380,60 L 390,70 C 370,90 340,100 310,90 C 290,85 270,85 250,95 C 230,105 210,105 190,95 C 170,85 150,85 130,95 L 90,110 Z" fill="url(#redGradient)" />
    <text x="180" y="130" font-family="serif" font-size="80" font-weight="bold" fill="#008080">M<tspan font-size="40" dy="-20">E</tspan>DINI</text>
    <text x="400" y="100" font-family="serif" font-size="15" font-weight="normal" fill="#008080">™</text>
  </g>
</svg>
